<svg class="svg-icon" style="width: 1em;height: 1em;vertical-align: middle;fill: currentColor;overflow: hidden;" viewBox="0 0 1024 1024" version="1.1" xmlns="http://www.w3.org/2000/svg"><path d="M396.501333 371.498667l60.330667-60.330667 234.666667 234.666667a133.162667 133.162667 0 0 1-188.330667 188.330666l-298.666667-298.666666a193.536 193.536 0 0 1 0-273.664 192.256 192.256 0 0 1 273.024 1.152l341.248 347.050666a240.512 240.512 0 0 1-2.858666 340.138667l-2.005334 1.92a253.568 253.568 0 0 1-349.098666 2.133333L269.482667 671.146667l58.368-62.293334 195.328 183.125334a168.234667 168.234667 0 0 0 231.594666-1.408l1.28-1.28a155.178667 155.178667 0 0 0 1.877334-219.434667L416.682667 222.805333l-0.64-0.64a106.922667 106.922667 0 0 0-151.210667 0c-42.24 42.24-42.24 110.762667 0 153.002667l298.666667 298.666667a47.829333 47.829333 0 1 0 67.669333-67.669334l-234.666667-234.666666z" fill="#525A65" /></svg>